<svg width="42" height="42" viewBox="0 0 42 42" fill="none" xmlns="http://www.w3.org/2000/svg">
<rect width="42" height="42" rx="6" fill="url(#paint0_linear_592_3017)"/>
<path d="M6.89935 18.5426C5.55081 19.8999 5.5508 22.1006 6.89934 23.4579L12.2209 28.814C13.2128 29.8125 14.6582 30.0764 15.8899 29.606C14.8993 29.4458 13.986 28.8545 13.4452 27.9118L9.68231 21.3518C8.72875 19.6895 9.29464 17.5638 10.9463 16.604L17.0003 13.086C15.6456 11.83 13.5353 11.8635 12.2209 13.1864L6.89935 18.5426Z" fill="white"/>
<path d="M14.0966 16.604C12.445 17.5638 11.8791 19.6894 12.8327 21.3518L16.5956 27.9117C17.5491 29.5741 19.6611 30.1436 21.3127 29.1839L21.43 29.1157C19.9136 29.1063 18.5292 28.0845 18.1177 26.5388L16.1699 19.2222C15.6763 17.368 16.7695 15.4622 18.6117 14.9654L24.7295 13.3155C23.6491 12.2734 21.9753 12.0257 20.6142 12.8166L14.0966 16.604Z" fill="white"/>
<path d="M19.3206 19.2223C18.827 17.3682 19.9202 15.4624 21.7623 14.9655L29.0316 13.0051C30.8738 12.5082 32.7673 13.6086 33.2609 15.4627L35.2087 22.7793C35.7023 24.6335 34.6091 26.5393 32.7669 27.0361L25.4976 28.9966C23.6555 29.4934 21.762 28.3931 21.2684 26.5389L19.3206 19.2223Z" fill="white"/>
<defs>
<linearGradient id="paint0_linear_592_3017" x1="21" y1="0" x2="21" y2="42" gradientUnits="userSpaceOnUse">
<stop stop-color="#0C90FF"/>
<stop offset="1" stop-color="#2B42EE"/>
</linearGradient>
</defs>
</svg>
