<svg width="77" height="77" viewBox="0 0 77 77" fill="none" xmlns="http://www.w3.org/2000/svg">
<path d="M0 19.9784C0 12.9853 0 9.48875 1.36095 6.81774C2.55807 4.46826 4.46826 2.55807 6.81774 1.36095C9.48875 0 12.9853 0 19.9784 0H57.0216C64.0147 0 67.5113 0 70.1823 1.36095C72.5317 2.55807 74.4419 4.46826 75.6391 6.81774C77 9.48875 77 12.9853 77 19.9784V57.0216C77 64.0147 77 67.5113 75.6391 70.1823C74.4419 72.5317 72.5317 74.4419 70.1823 75.6391C67.5113 77 64.0147 77 57.0216 77H19.9784C12.9853 77 9.48875 77 6.81774 75.6391C4.46826 74.4419 2.55807 72.5317 1.36095 70.1823C0 67.5113 0 64.0147 0 57.0216V19.9784Z" fill="url(#paint0_linear_592_3038)"/>
<path d="M12.6486 33.9943C10.1763 36.4827 10.1763 40.5173 12.6486 43.0057L22.4047 52.8253C24.2234 54.6558 26.8732 55.1397 29.1314 54.2772C27.3152 53.9835 25.6408 52.8995 24.6494 51.1711L17.7507 39.1446C16.0026 36.0969 17.04 32.1999 20.068 30.4403L31.1671 23.9905C28.6835 21.6879 24.8145 21.7493 22.4048 24.1747L12.6486 33.9943Z" fill="white"/>
<path d="M25.8437 30.4402C22.8157 32.1998 21.7783 36.0969 23.5265 39.1445L30.4251 51.171C32.1733 54.2187 36.0451 55.2629 39.0731 53.5034L39.2882 53.3783C36.5081 53.3612 33.9701 51.4878 33.2157 48.6541L29.6447 35.2402C28.7397 31.841 30.744 28.347 34.1212 27.4362L45.3372 24.4113C43.3565 22.5008 40.2879 22.0466 37.7924 23.4967L25.8437 30.4402Z" fill="white"/>
<path d="M35.4209 35.2404C34.5159 31.8412 36.5201 28.3472 39.8974 27.4364L53.2245 23.8422C56.6018 22.9314 60.0731 24.9486 60.9781 28.3479L64.5491 41.7617C65.454 45.1609 63.4498 48.6549 60.0725 49.5657L46.7454 53.16C43.3682 54.0708 39.8968 52.0535 38.9918 48.6543L35.4209 35.2404Z" fill="white"/>
<defs>
<linearGradient id="paint0_linear_592_3038" x1="38.5" y1="0" x2="38.5" y2="77" gradientUnits="userSpaceOnUse">
<stop stop-color="#0C90FF"/>
<stop offset="1" stop-color="#2B42EE"/>
</linearGradient>
</defs>
</svg>
