<svg width="212" height="39" viewBox="0 0 212 39" fill="none" xmlns="http://www.w3.org/2000/svg">
<path d="M47.0227 31V7.72727H62.4318V11.7841H51.9432V17.3295H61.4091V21.3864H51.9432V31H47.0227ZM65.3693 31V13.5455H70.0625V16.5909H70.2443C70.5625 15.5076 71.0966 14.6894 71.8466 14.1364C72.5966 13.5758 73.4602 13.2955 74.4375 13.2955C74.6799 13.2955 74.9413 13.3106 75.2216 13.3409C75.5019 13.3712 75.7481 13.4129 75.9602 13.4659V17.7614C75.733 17.6932 75.4186 17.6326 75.017 17.5795C74.6155 17.5265 74.2481 17.5 73.9148 17.5C73.2027 17.5 72.5663 17.6553 72.0057 17.9659C71.4527 18.2689 71.0133 18.6932 70.6875 19.2386C70.3693 19.7841 70.2102 20.4129 70.2102 21.125V31H65.3693ZM85.6051 31.3409C83.8097 31.3409 82.2642 30.9773 80.9688 30.25C79.6809 29.5152 78.6884 28.4773 77.9915 27.1364C77.2945 25.7879 76.946 24.1932 76.946 22.3523C76.946 20.5568 77.2945 18.9811 77.9915 17.625C78.6884 16.2689 79.6695 15.2121 80.9347 14.4545C82.2074 13.697 83.6998 13.3182 85.4119 13.3182C86.5634 13.3182 87.6354 13.5038 88.6278 13.875C89.6278 14.2386 90.4991 14.7879 91.2415 15.5227C91.9915 16.2576 92.5748 17.1818 92.9915 18.2955C93.4081 19.4015 93.6165 20.697 93.6165 22.1818V23.5114H78.8778V20.5114H89.0597C89.0597 19.8144 88.9081 19.197 88.6051 18.6591C88.3021 18.1212 87.8816 17.7008 87.3438 17.3977C86.8134 17.0871 86.196 16.9318 85.4915 16.9318C84.7566 16.9318 84.1051 17.1023 83.5369 17.4432C82.9763 17.7765 82.5369 18.2273 82.2188 18.7955C81.9006 19.3561 81.7377 19.9811 81.7301 20.6705V23.5227C81.7301 24.3864 81.8892 25.1326 82.2074 25.7614C82.5331 26.3902 82.9915 26.875 83.5824 27.2159C84.1733 27.5568 84.8741 27.7273 85.6847 27.7273C86.2225 27.7273 86.715 27.6515 87.1619 27.5C87.6089 27.3485 87.9915 27.1212 88.3097 26.8182C88.6278 26.5152 88.8703 26.1439 89.0369 25.7045L93.5142 26C93.2869 27.0758 92.821 28.0152 92.1165 28.8182C91.4195 29.6136 90.518 30.2348 89.4119 30.6818C88.3134 31.1212 87.0445 31.3409 85.6051 31.3409ZM104.73 31.3409C102.935 31.3409 101.389 30.9773 100.094 30.25C98.8059 29.5152 97.8134 28.4773 97.1165 27.1364C96.4195 25.7879 96.071 24.1932 96.071 22.3523C96.071 20.5568 96.4195 18.9811 97.1165 17.625C97.8134 16.2689 98.7945 15.2121 100.06 14.4545C101.332 13.697 102.825 13.3182 104.537 13.3182C105.688 13.3182 106.76 13.5038 107.753 13.875C108.753 14.2386 109.624 14.7879 110.366 15.5227C111.116 16.2576 111.7 17.1818 112.116 18.2955C112.533 19.4015 112.741 20.697 112.741 22.1818V23.5114H98.0028V20.5114H108.185C108.185 19.8144 108.033 19.197 107.73 18.6591C107.427 18.1212 107.007 17.7008 106.469 17.3977C105.938 17.0871 105.321 16.9318 104.616 16.9318C103.882 16.9318 103.23 17.1023 102.662 17.4432C102.101 17.7765 101.662 18.2273 101.344 18.7955C101.026 19.3561 100.863 19.9811 100.855 20.6705V23.5227C100.855 24.3864 101.014 25.1326 101.332 25.7614C101.658 26.3902 102.116 26.875 102.707 27.2159C103.298 27.5568 103.999 27.7273 104.81 27.7273C105.348 27.7273 105.84 27.6515 106.287 27.5C106.734 27.3485 107.116 27.1212 107.435 26.8182C107.753 26.5152 107.995 26.1439 108.162 25.7045L112.639 26C112.412 27.0758 111.946 28.0152 111.241 28.8182C110.545 29.6136 109.643 30.2348 108.537 30.6818C107.438 31.1212 106.17 31.3409 104.73 31.3409ZM115.991 31V7.72727H131.401V11.7841H120.912V17.3295H130.378V21.3864H120.912V31H115.991ZM134.338 31V13.5455H139.031V16.5909H139.213C139.531 15.5076 140.065 14.6894 140.815 14.1364C141.565 13.5758 142.429 13.2955 143.406 13.2955C143.649 13.2955 143.91 13.3106 144.19 13.3409C144.471 13.3712 144.717 13.4129 144.929 13.4659V17.7614C144.702 17.6932 144.387 17.6326 143.986 17.5795C143.584 17.5265 143.217 17.5 142.884 17.5C142.171 17.5 141.535 17.6553 140.974 17.9659C140.421 18.2689 139.982 18.6932 139.656 19.2386C139.338 19.7841 139.179 20.4129 139.179 21.125V31H134.338ZM151.909 31.3295C150.795 31.3295 149.803 31.1364 148.932 30.75C148.061 30.3561 147.371 29.7765 146.864 29.0114C146.364 28.2386 146.114 27.2765 146.114 26.125C146.114 25.1553 146.292 24.3409 146.648 23.6818C147.004 23.0227 147.489 22.4924 148.102 22.0909C148.716 21.6894 149.413 21.3864 150.193 21.1818C150.981 20.9773 151.807 20.8333 152.67 20.75C153.686 20.6439 154.504 20.5455 155.125 20.4545C155.746 20.3561 156.197 20.2121 156.477 20.0227C156.758 19.8333 156.898 19.553 156.898 19.1818V19.1136C156.898 18.3939 156.67 17.8371 156.216 17.4432C155.769 17.0492 155.133 16.8523 154.307 16.8523C153.436 16.8523 152.742 17.0455 152.227 17.4318C151.712 17.8106 151.371 18.2879 151.205 18.8636L146.727 18.5C146.955 17.4394 147.402 16.5227 148.068 15.75C148.735 14.9697 149.595 14.3712 150.648 13.9545C151.708 13.5303 152.936 13.3182 154.33 13.3182C155.299 13.3182 156.227 13.4318 157.114 13.6591C158.008 13.8864 158.799 14.2386 159.489 14.7159C160.186 15.1932 160.735 15.8068 161.136 16.5568C161.538 17.2992 161.739 18.1894 161.739 19.2273V31H157.148V28.5795H157.011C156.731 29.125 156.356 29.6061 155.886 30.0227C155.417 30.4318 154.852 30.7538 154.193 30.9886C153.534 31.2159 152.773 31.3295 151.909 31.3295ZM153.295 27.9886C154.008 27.9886 154.636 27.8485 155.182 27.5682C155.727 27.2803 156.155 26.8939 156.466 26.4091C156.777 25.9242 156.932 25.375 156.932 24.7614V22.9091C156.78 23.0076 156.572 23.0985 156.307 23.1818C156.049 23.2576 155.758 23.3295 155.432 23.3977C155.106 23.4583 154.78 23.5152 154.455 23.5682C154.129 23.6136 153.833 23.6553 153.568 23.6932C153 23.7765 152.504 23.9091 152.08 24.0909C151.655 24.2727 151.326 24.5189 151.091 24.8295C150.856 25.1326 150.739 25.5114 150.739 25.9659C150.739 26.625 150.977 27.1288 151.455 27.4773C151.939 27.8182 152.553 27.9886 153.295 27.9886ZM165.494 31V13.5455H170.108V16.625H170.312C170.676 15.6023 171.282 14.7955 172.131 14.2045C172.979 13.6136 173.994 13.3182 175.176 13.3182C176.373 13.3182 177.392 13.6174 178.233 14.2159C179.074 14.8068 179.634 15.6098 179.915 16.625H180.097C180.453 15.625 181.097 14.8258 182.028 14.2273C182.968 13.6212 184.078 13.3182 185.358 13.3182C186.987 13.3182 188.309 13.8371 189.324 14.875C190.347 15.9053 190.858 17.3674 190.858 19.2614V31H186.028V20.2159C186.028 19.2462 185.771 18.5189 185.256 18.0341C184.741 17.5492 184.097 17.3068 183.324 17.3068C182.445 17.3068 181.759 17.5871 181.267 18.1477C180.775 18.7008 180.528 19.4318 180.528 20.3409V31H175.835V20.1136C175.835 19.2576 175.589 18.5758 175.097 18.0682C174.612 17.5606 173.972 17.3068 173.176 17.3068C172.638 17.3068 172.153 17.4432 171.722 17.7159C171.297 17.9811 170.96 18.3561 170.71 18.8409C170.46 19.3182 170.335 19.8788 170.335 20.5227V31H165.494ZM202.636 31.3409C200.841 31.3409 199.295 30.9773 198 30.25C196.712 29.5152 195.72 28.4773 195.023 27.1364C194.326 25.7879 193.977 24.1932 193.977 22.3523C193.977 20.5568 194.326 18.9811 195.023 17.625C195.72 16.2689 196.701 15.2121 197.966 14.4545C199.239 13.697 200.731 13.3182 202.443 13.3182C203.595 13.3182 204.667 13.5038 205.659 13.875C206.659 14.2386 207.53 14.7879 208.273 15.5227C209.023 16.2576 209.606 17.1818 210.023 18.2955C210.439 19.4015 210.648 20.697 210.648 22.1818V23.5114H195.909V20.5114H206.091C206.091 19.8144 205.939 19.197 205.636 18.6591C205.333 18.1212 204.913 17.7008 204.375 17.3977C203.845 17.0871 203.227 16.9318 202.523 16.9318C201.788 16.9318 201.136 17.1023 200.568 17.4432C200.008 17.7765 199.568 18.2273 199.25 18.7955C198.932 19.3561 198.769 19.9811 198.761 20.6705V23.5227C198.761 24.3864 198.92 25.1326 199.239 25.7614C199.564 26.3902 200.023 26.875 200.614 27.2159C201.205 27.5568 201.905 27.7273 202.716 27.7273C203.254 27.7273 203.746 27.6515 204.193 27.5C204.64 27.3485 205.023 27.1212 205.341 26.8182C205.659 26.5152 205.902 26.1439 206.068 25.7045L210.545 26C210.318 27.0758 209.852 28.0152 209.148 28.8182C208.451 29.6136 207.549 30.2348 206.443 30.6818C205.345 31.1212 204.076 31.3409 202.636 31.3409Z" fill="#3670FF"/>
<rect y="1" width="37" height="37" rx="6" fill="url(#paint0_linear_591_3008)"/>
<path d="M6.07801 17.335C4.89001 18.5308 4.89001 20.4694 6.07801 21.6652L10.766 26.3837C11.6399 27.2633 12.9132 27.4958 13.9983 27.0814C13.1256 26.9402 12.321 26.4193 11.8446 25.5888L8.52967 19.8098C7.68963 18.3454 8.18815 16.4728 9.64315 15.6273L14.9765 12.528C13.7831 11.4216 11.9239 11.4511 10.766 12.6165L6.07801 17.335Z" fill="white"/>
<path d="M12.4185 15.6272C10.9635 16.4727 10.465 18.3453 11.305 19.8098L14.6199 25.5888C15.46 27.0532 17.3205 27.555 18.7755 26.7095L18.8789 26.6494C17.5429 26.6412 16.3234 25.741 15.9609 24.3793L14.2449 17.9337C13.8101 16.3003 14.7732 14.6214 16.396 14.1837L21.7855 12.7302C20.8337 11.8122 19.3592 11.5939 18.1601 12.2907L12.4185 15.6272Z" fill="white"/>
<path d="M17.0205 17.9338C16.5857 16.3004 17.5487 14.6215 19.1716 14.1838L25.5755 12.4567C27.1983 12.0191 28.8664 12.9884 29.3013 14.6218L31.0172 21.0674C31.452 22.7008 30.489 24.3797 28.8661 24.8174L22.4622 26.5445C20.8393 26.9822 19.1713 26.0128 18.7364 24.3794L17.0205 17.9338Z" fill="white"/>
<defs>
<linearGradient id="paint0_linear_591_3008" x1="18.5" y1="1" x2="18.5" y2="38" gradientUnits="userSpaceOnUse">
<stop stop-color="#0C90FF"/>
<stop offset="1" stop-color="#2B42EE"/>
</linearGradient>
</defs>
</svg>
