<svg width="439" height="77" viewBox="0 0 439 77" fill="none" xmlns="http://www.w3.org/2000/svg">
<path d="M97.8582 62.4319V13.9995H129.926V22.4421H108.098V33.9826H127.797V42.4252H108.098V62.4319H97.8582Z" fill="#3670FF"/>
<path d="M136.039 62.4319V26.1076H145.806V32.4455H146.184C146.846 30.191 147.958 28.4883 149.519 27.3374C151.079 26.1707 152.877 25.5874 154.911 25.5874C155.415 25.5874 155.959 25.6189 156.542 25.6819C157.126 25.745 157.638 25.8317 158.079 25.9421V34.8813C157.606 34.7394 156.952 34.6133 156.117 34.5029C155.281 34.3925 154.516 34.3374 153.823 34.3374C152.341 34.3374 151.016 34.6605 149.85 35.3069C148.699 35.9376 147.784 36.8205 147.106 37.9556C146.444 39.0907 146.113 40.3993 146.113 41.8813V62.4319H136.039Z" fill="#3670FF"/>
<path d="M178.151 63.1414C174.415 63.1414 171.199 62.3846 168.503 60.8711C165.822 59.3419 163.757 57.1819 162.307 54.3914C160.856 51.5851 160.131 48.2664 160.131 44.4353C160.131 40.6988 160.856 37.4196 162.307 34.5975C163.757 31.7754 165.799 29.5761 168.432 27.9995C171.08 26.4229 174.186 25.6346 177.749 25.6346C180.146 25.6346 182.376 26.0209 184.442 26.7934C186.523 27.5502 188.336 28.6932 189.881 30.2225C191.442 31.7518 192.656 33.6752 193.523 35.9928C194.39 38.2946 194.824 40.9905 194.824 44.0806V46.8475H164.151V40.6042H185.34C185.34 39.1538 185.025 37.8689 184.394 36.7495C183.764 35.6301 182.889 34.7551 181.769 34.1245C180.666 33.4781 179.381 33.1549 177.915 33.1549C176.385 33.1549 175.03 33.5096 173.847 34.2191C172.681 34.9128 171.766 35.8509 171.104 37.0333C170.442 38.2 170.103 39.5006 170.087 40.9353V46.8711C170.087 48.6684 170.418 50.2214 171.08 51.5299C171.758 52.8385 172.712 53.8475 173.942 54.5569C175.171 55.2664 176.63 55.6211 178.317 55.6211C179.436 55.6211 180.461 55.4635 181.391 55.1482C182.321 54.8328 183.117 54.3599 183.78 53.7292C184.442 53.0986 184.946 52.3261 185.293 51.4117L194.611 52.0265C194.138 54.2653 193.168 56.2202 191.702 57.8914C190.251 59.5468 188.375 60.8396 186.074 61.7698C183.787 62.6842 181.147 63.1414 178.151 63.1414Z" fill="#3670FF"/>
<path d="M217.952 63.1414C214.215 63.1414 210.999 62.3846 208.303 60.8711C205.623 59.3419 203.558 57.1819 202.107 54.3914C200.657 51.5851 199.932 48.2664 199.932 44.4353C199.932 40.6988 200.657 37.4196 202.107 34.5975C203.558 31.7754 205.599 29.5761 208.232 27.9995C210.881 26.4229 213.987 25.6346 217.55 25.6346C219.946 25.6346 222.177 26.0209 224.242 26.7934C226.324 27.5502 228.137 28.6932 229.682 30.2225C231.242 31.7518 232.456 33.6752 233.324 35.9928C234.191 38.2946 234.624 40.9905 234.624 44.0806V46.8475H203.952V40.6042H225.141C225.141 39.1538 224.826 37.8689 224.195 36.7495C223.565 35.6301 222.69 34.7551 221.57 34.1245C220.467 33.4781 219.182 33.1549 217.715 33.1549C216.186 33.1549 214.83 33.5096 213.648 34.2191C212.481 34.9128 211.567 35.8509 210.905 37.0333C210.242 38.2 209.903 39.5006 209.888 40.9353V46.8711C209.888 48.6684 210.219 50.2214 210.881 51.5299C211.559 52.8385 212.513 53.8475 213.742 54.5569C214.972 55.2664 216.431 55.6211 218.117 55.6211C219.237 55.6211 220.262 55.4635 221.192 55.1482C222.122 54.8328 222.918 54.3599 223.58 53.7292C224.242 53.0986 224.747 52.3261 225.094 51.4117L234.411 52.0265C233.938 54.2653 232.969 56.2202 231.503 57.8914C230.052 59.5468 228.176 60.8396 225.874 61.7698C223.588 62.6842 220.947 63.1414 217.952 63.1414Z" fill="#3670FF"/>
<path d="M241.388 62.4319V13.9995H273.455V22.4421H251.628V33.9826H271.327V42.4252H251.628V62.4319H241.388Z" fill="#3670FF"/>
<path d="M279.568 62.4319V26.1076H289.335V32.4455H289.714C290.376 30.191 291.487 28.4883 293.048 27.3374C294.609 26.1707 296.406 25.5874 298.44 25.5874C298.945 25.5874 299.489 25.6189 300.072 25.6819C300.655 25.745 301.168 25.8317 301.609 25.9421V34.8813C301.136 34.7394 300.482 34.6133 299.646 34.5029C298.811 34.3925 298.046 34.3374 297.352 34.3374C295.87 34.3374 294.546 34.6605 293.379 35.3069C292.228 35.9376 291.314 36.8205 290.636 37.9556C289.974 39.0907 289.643 40.3993 289.643 41.8813V62.4319H279.568Z" fill="#3670FF"/>
<path d="M316.135 63.1178C313.818 63.1178 311.752 62.7157 309.939 61.9117C308.126 61.0919 306.692 59.8858 305.635 58.2934C304.595 56.6853 304.074 54.6831 304.074 52.2867C304.074 50.2687 304.445 48.5738 305.186 47.2022C305.927 45.8306 306.936 44.727 308.213 43.8914C309.49 43.0558 310.94 42.4252 312.564 41.9995C314.204 41.5738 315.922 41.2743 317.72 41.1009C319.832 40.8801 321.535 40.6752 322.828 40.486C324.121 40.281 325.059 39.9815 325.642 39.5874C326.225 39.1932 326.517 38.6099 326.517 37.8374V37.6955C326.517 36.1977 326.044 35.0389 325.098 34.2191C324.168 33.3993 322.844 32.9894 321.125 32.9894C319.312 32.9894 317.869 33.3914 316.797 34.1955C315.725 34.9837 315.016 35.977 314.669 37.1752L305.351 36.4184C305.824 34.2112 306.755 32.3036 308.142 30.6955C309.529 29.0716 311.319 27.8261 313.51 26.959C315.717 26.0761 318.271 25.6346 321.172 25.6346C323.19 25.6346 325.122 25.8711 326.966 26.3441C328.827 26.8171 330.474 27.5502 331.909 28.5434C333.359 29.5367 334.502 30.8137 335.338 32.3745C336.173 33.9196 336.591 35.772 336.591 37.9319V62.4319H327.037V57.3948H326.753C326.17 58.5299 325.39 59.531 324.412 60.3982C323.435 61.2495 322.26 61.9196 320.889 62.4083C319.517 62.8813 317.932 63.1178 316.135 63.1178ZM319.02 56.1651C320.502 56.1651 321.811 55.8734 322.946 55.2901C324.081 54.691 324.972 53.8869 325.618 52.8779C326.265 51.8689 326.588 50.7259 326.588 49.4488V45.5941C326.273 45.7991 325.839 45.9883 325.287 46.1617C324.751 46.3193 324.144 46.4691 323.466 46.611C322.788 46.7371 322.11 46.8554 321.432 46.9657C320.755 47.0603 320.14 47.147 319.588 47.2259C318.405 47.3993 317.373 47.6752 316.49 48.0536C315.607 48.4319 314.921 48.9443 314.432 49.5907C313.944 50.2214 313.699 51.0096 313.699 51.9556C313.699 53.3272 314.196 54.3756 315.189 55.1009C316.198 55.8103 317.475 56.1651 319.02 56.1651Z" fill="#3670FF"/>
<path d="M344.407 62.4319V26.1076H354.009V32.5164H354.434C355.191 30.388 356.452 28.709 358.218 27.4792C359.984 26.2495 362.096 25.6346 364.556 25.6346C367.047 25.6346 369.167 26.2574 370.917 27.5029C372.667 28.7326 373.834 30.4038 374.417 32.5164H374.796C375.537 30.4353 376.877 28.772 378.816 27.5265C380.771 26.2653 383.081 25.6346 385.745 25.6346C389.135 25.6346 391.886 26.7146 393.998 28.8745C396.127 31.0187 397.191 34.0614 397.191 38.0029V62.4319H387.14V39.9894C387.14 37.9714 386.604 36.4578 385.532 35.4488C384.46 34.4398 383.12 33.9353 381.512 33.9353C379.683 33.9353 378.256 34.5187 377.231 35.6853C376.207 36.8362 375.694 38.3576 375.694 40.2495V62.4319H365.927V39.7765C365.927 37.995 365.415 36.5761 364.39 35.5198C363.381 34.4635 362.049 33.9353 360.394 33.9353C359.274 33.9353 358.265 34.2191 357.367 34.7867C356.484 35.3385 355.782 36.1189 355.262 37.1279C354.742 38.1211 354.481 39.2878 354.481 40.6279V62.4319H344.407Z" fill="#3670FF"/>
<path d="M421.703 63.1414C417.966 63.1414 414.75 62.3846 412.054 60.8711C409.374 59.3419 407.309 57.1819 405.858 54.3914C404.408 51.5851 403.682 48.2664 403.682 44.4353C403.682 40.6988 404.408 37.4196 405.858 34.5975C407.309 31.7754 409.35 29.5761 411.983 27.9995C414.632 26.4229 417.738 25.6346 421.301 25.6346C423.697 25.6346 425.928 26.0209 427.993 26.7934C430.074 27.5502 431.887 28.6932 433.432 30.2225C434.993 31.7518 436.207 33.6752 437.074 35.9928C437.941 38.2946 438.375 40.9905 438.375 44.0806V46.8475H407.703V40.6042H428.892C428.892 39.1538 428.577 37.8689 427.946 36.7495C427.315 35.6301 426.44 34.7551 425.321 34.1245C424.217 33.4781 422.932 33.1549 421.466 33.1549C419.937 33.1549 418.581 33.5096 417.399 34.2191C416.232 34.9128 415.318 35.8509 414.655 37.0333C413.993 38.2 413.654 39.5006 413.639 40.9353V46.8711C413.639 48.6684 413.97 50.2214 414.632 51.5299C415.31 52.8385 416.264 53.8475 417.493 54.5569C418.723 55.2664 420.181 55.6211 421.868 55.6211C422.988 55.6211 424.012 55.4635 424.943 55.1482C425.873 54.8328 426.669 54.3599 427.331 53.7292C427.993 53.0986 428.498 52.3261 428.845 51.4117L438.162 52.0265C437.689 54.2653 436.72 56.2202 435.253 57.8914C433.803 59.5468 431.927 60.8396 429.625 61.7698C427.339 62.6842 424.698 63.1414 421.703 63.1414Z" fill="#3670FF"/>
<path d="M0 19.9784C0 12.9853 0 9.48875 1.36095 6.81774C2.55807 4.46826 4.46826 2.55807 6.81774 1.36095C9.48875 0 12.9853 0 19.9784 0H57.0216C64.0147 0 67.5113 0 70.1823 1.36095C72.5317 2.55807 74.4419 4.46826 75.6391 6.81774C77 9.48875 77 12.9853 77 19.9784V57.0216C77 64.0147 77 67.5113 75.6391 70.1823C74.4419 72.5317 72.5317 74.4419 70.1823 75.6391C67.5113 77 64.0147 77 57.0216 77H19.9784C12.9853 77 9.48875 77 6.81774 75.6391C4.46826 74.4419 2.55807 72.5317 1.36095 70.1823C0 67.5113 0 64.0147 0 57.0216V19.9784Z" fill="url(#paint0_linear_591_3008)"/>
<path d="M12.6486 33.9943C10.1763 36.4827 10.1763 40.5173 12.6486 43.0057L22.4047 52.8253C24.2234 54.6558 26.8732 55.1397 29.1314 54.2772C27.3152 53.9835 25.6408 52.8995 24.6494 51.1711L17.7507 39.1446C16.0026 36.0969 17.04 32.1999 20.068 30.4403L31.1671 23.9905C28.6835 21.6879 24.8145 21.7493 22.4048 24.1747L12.6486 33.9943Z" fill="white"/>
<path d="M25.8437 30.4402C22.8157 32.1998 21.7783 36.0969 23.5265 39.1445L30.4251 51.171C32.1733 54.2187 36.0451 55.2629 39.0731 53.5034L39.2882 53.3783C36.5081 53.3612 33.9701 51.4878 33.2157 48.6541L29.6447 35.2402C28.7397 31.841 30.744 28.347 34.1212 27.4362L45.3372 24.4113C43.3565 22.5008 40.2879 22.0466 37.7924 23.4967L25.8437 30.4402Z" fill="white"/>
<path d="M35.4209 35.2404C34.5159 31.8412 36.5201 28.3472 39.8974 27.4364L53.2245 23.8422C56.6018 22.9314 60.0731 24.9486 60.9781 28.3479L64.5491 41.7617C65.454 45.1609 63.4498 48.6549 60.0725 49.5657L46.7454 53.16C43.3682 54.0708 39.8968 52.0535 38.9918 48.6543L35.4209 35.2404Z" fill="white"/>
<defs>
<linearGradient id="paint0_linear_591_3008" x1="38.5" y1="0" x2="38.5" y2="77" gradientUnits="userSpaceOnUse">
<stop stop-color="#0C90FF"/>
<stop offset="1" stop-color="#2B42EE"/>
</linearGradient>
</defs>
</svg>
